<svg width="48" height="48" viewBox="0 0 48 48" fill="none" xmlns="http://www.w3.org/2000/svg">
<g filter="url(#filter0_d_65_381)">
<rect x="4" width="40" height="40" rx="20" fill="#2878B7"/>
<path d="M32 20.7444V26.2601H28.7713V21.0807C28.7713 19.8027 28.3004 18.9283 27.157 18.9283C26.2825 18.9283 25.7444 19.5336 25.5426 20.0718C25.4753 20.2735 25.4081 20.5426 25.4081 20.8789V26.2601H22.1794C22.1794 26.2601 22.2466 17.5157 22.1794 16.6413H25.4081V17.9865C25.8117 17.3139 26.6188 16.3722 28.3004 16.3722C30.3856 16.3722 32 17.7848 32 20.7444ZM18.8161 12C17.7399 12 17 12.7399 17 13.6816C17 14.6233 17.6726 15.3632 18.7489 15.3632C19.8924 15.3632 20.565 14.6233 20.565 13.6816C20.6323 12.6726 19.9596 12 18.8161 12ZM17.2018 26.2601H20.4305V16.6413H17.2018V26.2601Z" fill="#FBFBFB"/>
</g>
<defs>
<filter id="filter0_d_65_381" x="0" y="0" width="48" height="48" filterUnits="userSpaceOnUse" color-interpolation-filters="sRGB">
<feFlood flood-opacity="0" result="BackgroundImageFix"/>
<feColorMatrix in="SourceAlpha" type="matrix" values="0 0 0 0 0 0 0 0 0 0 0 0 0 0 0 0 0 0 127 0" result="hardAlpha"/>
<feOffset dy="4"/>
<feGaussianBlur stdDeviation="2"/>
<feComposite in2="hardAlpha" operator="out"/>
<feColorMatrix type="matrix" values="0 0 0 0 0 0 0 0 0 0 0 0 0 0 0 0 0 0 0.25 0"/>
<feBlend mode="normal" in2="BackgroundImageFix" result="effect1_dropShadow_65_381"/>
<feBlend mode="normal" in="SourceGraphic" in2="effect1_dropShadow_65_381" result="shape"/>
</filter>
</defs>
</svg>
