<svg width="72" height="79" viewBox="0 0 72 79" fill="none" xmlns="http://www.w3.org/2000/svg">
<path d="M21.7173 9.50636C22.0549 8.95385 22.7118 8.16191 22.6381 9.41427C23.4362 8.98456 24.664 8.78814 23.1906 11.4402M62.5109 45.4196C62.6644 46.6781 62.5109 49.4161 60.6692 50.3001C60.6999 50.1159 60.7245 49.7108 60.5772 49.5634C60.3623 49.9318 59.8405 50.6869 59.4721 50.7605C59.5335 50.2694 59.6011 49.2319 59.3801 49.0109C59.2573 49.2565 58.938 49.8029 58.6434 50.0239C58.8275 49.41 59.159 48.0532 59.0117 47.5376M39.3976 37.4082C41.2393 38.6974 44.757 42.2335 43.7256 45.6959C43.718 45.7493 43.7028 45.8113 43.679 45.88M51.4607 42.565C50.8161 42.657 50.2636 44.8671 50.1716 45.88C50.0979 46.6904 49.22 47.8752 48.7903 48.3663C48.514 48.6119 47.63 49.2319 46.304 49.7476C44.978 50.2633 43.4187 50.0239 42.8048 49.8397C41.6383 49.3179 39.7291 48.1453 41.4235 47.6296C42.9072 47.1781 43.5106 46.364 43.679 45.88M41.4235 47.998C40.8403 47.7524 39.6739 47.6296 39.6739 49.103C39.9194 48.6733 40.5947 47.9427 41.3314 48.4584M41.976 48.9188C41.669 48.9495 41.1656 49.3056 41.6076 50.4843C41.669 49.9625 41.9576 48.9741 42.6206 49.1951M44.4623 49.1951C44.0939 49.3486 43.4309 49.9134 43.7256 50.9447C43.2959 50.4843 42.639 49.5266 43.4493 49.3793M43.679 45.88C44.1242 46.0949 45.1253 46.322 45.5673 45.5117C45.598 45.8493 45.4936 46.6904 44.8306 47.3534C45.3524 47.4148 46.6171 47.2429 47.5011 46.0642C47.4704 46.4018 47.3722 47.1324 47.2248 47.3534C47.8694 46.8316 49.1955 45.5117 49.3428 44.4067" stroke="#FBFBFB" stroke-width="0.7" stroke-linejoin="round"/>
<path d="M35.8981 33.3564C41.2759 34.0194 45.5671 38.8508 47.0404 41.1837L47.3167 39.8024C47.685 39.876 48.6366 41.3678 49.0663 42.1045V40.1707C50.024 40.3917 51.3684 42.2273 51.9209 43.1174V41.552C52.805 41.8467 54.131 43.6393 54.6835 44.4987V43.1174C56.8935 44.2225 57.8144 47.5682 57.9986 49.103C57.8144 49.3792 57.2734 50.4326 57.354 51.0368C57.9065 55.1806 62.6949 53.5231 63.5237 51.4051C64.3524 49.2872 63.9841 44.6829 63.5237 42.7491C63.0632 40.8153 64.1682 35.5665 62.9711 30.0414C61.774 24.5162 59.0115 22.8587 58.5511 22.3062C58.0906 21.7537 53.7626 18.8991 51.0922 17.9782C48.4217 17.0574 45.7715 17.8993 44.4823 17.2547C43.4509 16.7391 38.2205 15.6893 37.2075 15.6893C35.9386 15.0579 33.5776 13.595 32.3989 13.7423C31.2202 13.8896 31.6008 13.0056 31.9385 12.5452C31.1281 13.2082 29.0225 13.1284 28.0709 13.0056C28.5129 12.9319 29.5443 11.8085 30.0047 11.256C28.9918 12.361 25.5846 12.1768 24.94 12.0848C24.4243 12.0111 24.4182 11.6243 24.4796 11.4402C24.8786 10.3965 25.2899 8.2356 23.7429 7.94093C22.1959 7.64626 20.3358 8.24788 19.5991 8.58553L10.7589 8.76969C9.10132 8.76969 7.49005 11.7164 8.18056 12.8214C8.52581 13.3739 9.23034 14.3685 9.74601 14.6631C10.3906 15.0315 10.3906 15.0315 11.0352 16.0444C11.3728 16.0444 12.1034 16.0444 12.3244 16.0444C12.6006 16.0444 12.7848 17.3336 13.9819 17.3336C14.4423 17.7326 15.621 19.3042 16.6524 22.3983C16.8673 22.1834 17.2601 21.6432 17.1128 21.2012C17.3584 21.9379 17.8127 23.5401 17.6653 24.0558C17.9416 23.8717 18.4941 23.3744 18.4941 22.8587C18.8624 23.841 19.5439 26.008 19.3228 26.8184C19.4149 26.5728 19.5991 25.9344 19.5991 25.345C20.0595 26.051 20.9435 27.6103 20.7962 28.1997C21.0418 28.0462 21.5145 27.6103 21.4408 27.0946C21.3671 26.579 21.4101 26.6956 21.4408 26.8184C21.4687 27.404 21.6739 28.7191 22.2636 29.673M34.8852 23.3191L35.5298 33.3564L50.908 36.8557L55.6043 25.6213L34.8852 23.3191ZM34.8852 23.3191L17.4811 11.4402L9.19349 10.151M37.3715 28.1997C37.3715 28.4759 39.5816 36.119 39.3974 37.5923C39.25 38.771 38.6607 39.434 38.3845 39.6182C38.1634 39.5445 38.0468 38.7894 38.0161 38.4211C37.3531 38.9368 36.819 40.1093 36.6348 40.6311C36.4138 40.5575 36.5428 39.8024 36.6348 39.434C36.1928 39.434 34.9773 41.7669 34.4248 42.9333L34.2406 41.6441C33.6881 42.1659 32.5094 43.3937 32.2148 44.1304C31.9201 44.8671 30.8335 46.3404 30.0968 46.8929C29.2987 47.4761 27.0027 48.7531 24.2034 49.1951C21.404 49.6371 20.3972 48.1514 20.2437 47.3534C20.1823 46.8009 20.5752 45.6406 22.6379 45.4196C25.2163 45.1433 25.7465 43.2989 25.7688 43.2095C25.8609 42.8412 26.0451 42.0891 26.2292 41.8283C27.1433 40.5333 27.6793 38.2931 27.9415 36.6715M22.2636 29.673C22.323 29.7691 22.3863 29.8616 22.4537 29.9493C23.0062 30.5939 23.1904 30.1334 23.7429 30.5018C24.2954 30.8701 25.3084 32.9881 25.7688 33.1723C26.2292 33.3564 28.2551 34.1852 28.0709 35.7506C28.0391 36.0211 27.9963 36.3328 27.9415 36.6715M22.2636 29.673C22.419 30.6246 22.3432 32.8776 20.7962 34.2773C18.8624 36.0269 17.8537 38.2458 15.9157 39.1578C14.3503 39.8945 14.6265 39.8024 13.7978 39.8945C12.8293 40.0021 11.5877 41.8283 12.1402 42.3808C12.6927 42.9333 14.5344 43.762 16.8366 43.2095C18.6783 42.7675 21.6557 40.3242 22.9142 39.1578V40.3549L25.4925 38.2369L25.4005 39.2499L27.9415 36.6715M12.6006 41.1837C12.1402 41.1837 11.2194 41.4967 11.2194 42.7491C11.4342 42.3194 11.9929 41.5152 12.5086 41.7362M13.7057 41.7362C13.368 41.8283 12.8032 42.3623 13.2452 43.762C13.3066 43.2402 13.5767 42.1598 14.1661 42.0124M15.4553 42.2887C15.1176 42.4729 14.6449 43.0806 15.4553 44.0383C15.4246 43.5472 15.5289 42.5281 16.192 42.3808M15.179 39.8945C14.5037 40.6925 13.632 41.9203 15.5474 40.447C15.2404 41.1837 15.179 42.1045 17.3891 39.8945M24.5717 45.0512C23.835 45.4196 22.8221 46.0273 24.6638 45.5117C24.4796 46.0642 24.498 46.8377 26.0451 45.5117M20.612 47.1692C20.2437 47.3534 19.5807 47.9795 19.8754 49.0109C19.9981 48.4584 20.4647 47.4086 21.3487 47.6296M21.7171 47.9059C21.2873 47.998 20.5752 48.4584 21.1645 49.5634C21.1645 49.1644 21.3303 48.3663 21.9933 48.3663M23.2825 48.1821C22.7914 48.6119 22.2512 49.6187 24.0192 50.208C23.6508 49.7476 23.1352 48.7346 24.0192 48.3663M57.8144 51.4972C57.5075 51.62 57.0041 52.2339 57.4461 53.7072C57.5075 53.1547 57.7776 52.0129 58.367 51.8655M59.1036 52.326C58.7967 52.6943 58.4222 53.6152 59.3799 54.3518C59.2878 53.9528 59.251 53.0258 59.8403 52.5101M60.4849 52.6022C60.4849 53.0013 60.6138 53.8177 61.1295 53.8914C61.0681 53.5538 61.019 52.7864 61.3137 52.418" stroke="#FBFBFB" stroke-width="0.7" stroke-linejoin="round"/>
<path d="M9.21371 8.78296L9.48247 9.61014H10.3522L9.64858 10.1214L9.91735 10.9485L9.21371 10.4373L8.51007 10.9485L8.77883 10.1214L8.07519 9.61014H8.94494L9.21371 8.78296Z" fill="#FBFBFB"/>
<path d="M17.1331 10.2563L17.4019 11.0835H18.2717L17.568 11.5948L17.8368 12.4219L17.1331 11.9107L16.4295 12.4219L16.6983 11.5948L15.9946 11.0835H16.8644L17.1331 10.2563Z" fill="#FBFBFB"/>
<path d="M34.9974 22.2273L35.2662 23.0545H36.1359L35.4323 23.5657L35.701 24.3929L34.9974 23.8817L34.2938 24.3929L34.5625 23.5657L33.8589 23.0545H34.7286L34.9974 22.2273Z" fill="#FBFBFB"/>
<path d="M55.6244 24.4375L55.8931 25.2647H56.7629L56.0592 25.7759L56.328 26.6031L55.6244 26.0919L54.9207 26.6031L55.1895 25.7759L54.4858 25.2647H55.3556L55.6244 24.4375Z" fill="#FBFBFB"/>
<path d="M50.8363 35.4875L51.105 36.3147H51.9748L51.2711 36.826L51.5399 37.6531L50.8363 37.1419L50.1326 37.6531L50.4014 36.826L49.6978 36.3147H50.5675L50.8363 35.4875Z" fill="#FBFBFB"/>
<path d="M35.7342 32.1726L36.003 32.9998H36.8727L36.1691 33.511L36.4379 34.3382L35.7342 33.827L35.0306 34.3382L35.2993 33.511L34.5957 32.9998H35.4654L35.7342 32.1726Z" fill="#FBFBFB"/>
<path d="M4.695 75.4902H2.97794L7.94422 61.965H9.63487L14.6012 75.4902H12.8841L8.84238 64.1048H8.73671L4.695 75.4902ZM5.329 70.207H12.2501V71.6599H5.329V70.207ZM18.0551 61.965V75.4902H16.4965V61.965H18.0551ZM25.0307 75.7016C24.0797 75.7016 23.2608 75.477 22.574 75.0279C21.8871 74.5789 21.3588 73.9603 20.989 73.1722C20.6191 72.3841 20.4342 71.4837 20.4342 70.4711C20.4342 69.4409 20.6235 68.5317 21.0022 67.7436C21.3852 66.9511 21.9179 66.3325 22.6004 65.8879C23.2872 65.4388 24.0885 65.2143 25.0043 65.2143C25.7175 65.2143 26.3603 65.3463 26.9327 65.6105C27.505 65.8747 27.9739 66.2445 28.3393 66.72C28.7048 67.1955 28.9315 67.7502 29.0196 68.3842H27.461C27.3421 67.9219 27.078 67.5125 26.6685 67.1559C26.2634 66.7948 25.7175 66.6143 25.0307 66.6143C24.4231 66.6143 23.8904 66.7728 23.4325 67.0898C22.979 67.4024 22.6246 67.8449 22.3692 68.4172C22.1183 68.9852 21.9928 69.6522 21.9928 70.4183C21.9928 71.202 22.1161 71.8844 22.3626 72.4656C22.6136 73.0467 22.9658 73.498 23.4193 73.8194C23.8772 74.1408 24.4143 74.3015 25.0307 74.3015C25.4357 74.3015 25.8034 74.2311 26.1336 74.0902C26.4638 73.9493 26.7433 73.7468 26.9723 73.4826C27.2012 73.2184 27.3641 72.9014 27.461 72.5316H29.0196C28.9315 73.1304 28.7136 73.6697 28.3658 74.1496C28.0223 74.6251 27.5667 75.0037 26.9987 75.2855C26.4352 75.5629 25.7791 75.7016 25.0307 75.7016ZM35.4189 75.7016C34.5032 75.7016 33.6997 75.4836 33.0084 75.0478C32.3216 74.6119 31.7845 74.0021 31.397 73.2184C31.014 72.4347 30.8225 71.519 30.8225 70.4711C30.8225 69.4145 31.014 68.4921 31.397 67.704C31.7845 66.9159 32.3216 66.3039 33.0084 65.8681C33.6997 65.4322 34.5032 65.2143 35.4189 65.2143C36.3347 65.2143 37.136 65.4322 37.8228 65.8681C38.5141 66.3039 39.0512 66.9159 39.4342 67.704C39.8217 68.4921 40.0154 69.4145 40.0154 70.4711C40.0154 71.519 39.8217 72.4347 39.4342 73.2184C39.0512 74.0021 38.5141 74.6119 37.8228 75.0478C37.136 75.4836 36.3347 75.7016 35.4189 75.7016ZM35.4189 74.3015C36.1146 74.3015 36.6869 74.1232 37.136 73.7666C37.5851 73.4099 37.9175 72.9411 38.1332 72.3599C38.349 71.7787 38.4568 71.1491 38.4568 70.4711C38.4568 69.7931 38.349 69.1613 38.1332 68.5757C37.9175 67.9902 37.5851 67.5169 37.136 67.1559C36.6869 66.7948 36.1146 66.6143 35.4189 66.6143C34.7233 66.6143 34.1509 66.7948 33.7019 67.1559C33.2528 67.5169 32.9204 67.9902 32.7046 68.5757C32.4889 69.1613 32.381 69.7931 32.381 70.4711C32.381 71.1491 32.4889 71.7787 32.7046 72.3599C32.9204 72.9411 33.2528 73.4099 33.7019 73.7666C34.1509 74.1232 34.7233 74.3015 35.4189 74.3015ZM42.3945 75.4902V65.3463H43.9002V66.8785H44.0059C44.1908 66.3766 44.5254 65.9693 45.0097 65.6567C45.494 65.3441 46.04 65.1878 46.6476 65.1878C46.762 65.1878 46.9051 65.19 47.0768 65.1944C47.2485 65.1988 47.3784 65.2054 47.4665 65.2143V66.7992C47.4136 66.786 47.2926 66.7662 47.1032 66.7398C46.9183 66.709 46.7224 66.6936 46.5155 66.6936C46.0224 66.6936 45.5821 66.797 45.1947 67.004C44.8116 67.2065 44.5078 67.4883 44.2833 67.8493C44.0632 68.2059 43.9531 68.6132 43.9531 69.071V75.4902H42.3945ZM53.1262 75.7016C52.2104 75.7016 51.4069 75.4836 50.7157 75.0478C50.0289 74.6119 49.4917 74.0021 49.1043 73.2184C48.7212 72.4347 48.5297 71.519 48.5297 70.4711C48.5297 69.4145 48.7212 68.4921 49.1043 67.704C49.4917 66.9159 50.0289 66.3039 50.7157 65.8681C51.4069 65.4322 52.2104 65.2143 53.1262 65.2143C54.0419 65.2143 54.8432 65.4322 55.5301 65.8681C56.2213 66.3039 56.7584 66.9159 57.1415 67.704C57.5289 68.4921 57.7226 69.4145 57.7226 70.4711C57.7226 71.519 57.5289 72.4347 57.1415 73.2184C56.7584 74.0021 56.2213 74.6119 55.5301 75.0478C54.8432 75.4836 54.0419 75.7016 53.1262 75.7016ZM53.1262 74.3015C53.8218 74.3015 54.3942 74.1232 54.8432 73.7666C55.2923 73.4099 55.6247 72.9411 55.8405 72.3599C56.0562 71.7787 56.1641 71.1491 56.1641 70.4711C56.1641 69.7931 56.0562 69.1613 55.8405 68.5757C55.6247 67.9902 55.2923 67.5169 54.8432 67.1559C54.3942 66.7948 53.8218 66.6143 53.1262 66.6143C52.4305 66.6143 51.8582 66.7948 51.4091 67.1559C50.96 67.5169 50.6276 67.9902 50.4119 68.5757C50.1962 69.1613 50.0883 69.7931 50.0883 70.4711C50.0883 71.1491 50.1962 71.7787 50.4119 72.3599C50.6276 72.9411 50.96 73.4099 51.4091 73.7666C51.8582 74.1232 52.4305 74.3015 53.1262 74.3015ZM67.287 67.6181L65.887 68.0144C65.7989 67.781 65.669 67.5543 65.4973 67.3342C65.33 67.1096 65.1011 66.9247 64.8105 66.7794C64.5199 66.6341 64.1479 66.5615 63.6944 66.5615C63.0736 66.5615 62.5563 66.7046 62.1424 66.9908C61.733 67.2725 61.5282 67.6314 61.5282 68.0672C61.5282 68.4547 61.6691 68.7607 61.9509 68.9852C62.2327 69.2097 62.673 69.3969 63.2717 69.5465L64.7775 69.9164C65.6844 70.1365 66.3603 70.4733 66.8049 70.9268C67.2496 71.3759 67.4719 71.9548 67.4719 72.6637C67.4719 73.2448 67.3046 73.7644 66.97 74.2222C66.6398 74.6801 66.1775 75.0412 65.5832 75.3053C64.9888 75.5695 64.2976 75.7016 63.5095 75.7016C62.4748 75.7016 61.6185 75.477 60.9405 75.0279C60.2625 74.5789 59.8332 73.9229 59.6527 73.0599L61.132 72.6901C61.2729 73.236 61.5393 73.6455 61.9311 73.9185C62.3273 74.1914 62.8447 74.3279 63.4831 74.3279C64.2095 74.3279 64.7863 74.1738 65.2133 73.8656C65.6448 73.553 65.8605 73.1788 65.8605 72.7429C65.8605 72.3907 65.7373 72.0957 65.4907 71.858C65.2442 71.6158 64.8655 71.4353 64.3548 71.3164L62.6642 70.9202C61.7352 70.7001 61.0528 70.3588 60.6169 69.8966C60.1854 69.4299 59.9697 68.8465 59.9697 68.1465C59.9697 67.5741 60.1304 67.0678 60.4518 66.6275C60.7776 66.1873 61.2201 65.8416 61.7792 65.5907C62.3428 65.3397 62.9812 65.2143 63.6944 65.2143C64.6982 65.2143 65.4863 65.4344 66.0587 65.8747C66.6354 66.3149 67.0449 66.8961 67.287 67.6181Z" fill="#FBFBFB"/>
<rect x="0.75" y="0.75" width="70.5" height="77.5" stroke="#FBFBFB" stroke-width="1.5"/>
</svg>
