<svg width="24" height="23" viewBox="0 0 24 23" fill="none" xmlns="http://www.w3.org/2000/svg">
<path d="M12.3455 0.214953L15.7552 7.124C15.8112 7.23781 15.9196 7.31636 16.0451 7.33454L23.6697 8.44253C23.9857 8.48835 24.1119 8.87671 23.8832 9.09962L18.3661 14.4774C18.2752 14.5658 18.2338 14.6934 18.2552 14.8181L19.5578 22.4119C19.6116 22.7264 19.2814 22.9664 18.9989 22.8177L12.1793 19.2323C12.0669 19.1734 11.9331 19.1734 11.8207 19.2323L5.00114 22.8177C4.7186 22.9661 4.38842 22.7264 4.44224 22.4119L5.74477 14.8181C5.76623 14.693 5.72477 14.5658 5.63386 14.4774L0.116813 9.09925C-0.111913 8.87635 0.0142678 8.48835 0.330266 8.44217L7.95494 7.33418C8.08039 7.31599 8.18876 7.23709 8.24476 7.12363L11.6545 0.21459C11.796 -0.0715903 12.204 -0.0715905 12.3455 0.214953Z" fill="#F3CC30"/>
<path d="M11.9999 1.81055L8.96141 7.69632C8.80214 8.00505 8.49596 8.21123 8.15014 8.2425L1.55273 8.84468L8.52323 9.1705C8.96577 9.19122 9.37122 8.92286 9.52468 8.50723L11.9999 1.81055Z" fill="#F7DB5E"/>
<path d="M4.59216 21.5381L4.44234 22.4119C4.38852 22.7265 4.7187 22.9665 5.00124 22.8177L11.8208 19.2323C11.9332 19.1734 12.067 19.1734 12.1794 19.2323L18.999 22.8177C19.2815 22.9665 19.6117 22.7265 19.5579 22.4119L18.2553 14.8182C18.2339 14.6931 18.2753 14.5658 18.3662 14.4774L23.8833 9.09965C24.112 8.87674 23.9858 8.48874 23.6698 8.44256L21.116 8.07129C16.9855 15.4843 10.6605 19.3868 4.59216 21.5381Z" fill="#EDBD31"/>
</svg>
